<svg width="24" height="24" fill="none" xmlns="http://www.w3.org/2000/svg"><g id="directions_bus"><mask id="mask0_268_5674" style="mask-type:alpha" maskUnits="userSpaceOnUse" x="0" y="0" width="24" height="24"><path id="Bounding box" fill="#D9D9D9" d="M0 0h24v24H0z"/></mask><g mask="url('#mask0_268_5674')"><path id="directions_bus_2" d="M7.038 20a.484.484 0 0 1-.356-.144.484.484 0 0 1-.144-.356v-1.896c-.325-.141-.663-.441-1.013-.901A2.549 2.549 0 0 1 5 15.115V6c0-1.037.561-1.797 1.684-2.278C7.807 3.24 9.58 3 12 3c2.508 0 4.302.231 5.382.694C18.46 4.156 19 4.925 19 6v9.115c0 .6-.175 1.128-.525 1.588-.35.46-.688.76-1.014.9V19.5c0 .142-.047.26-.143.356a.484.484 0 0 1-.357.144h-.23a.484.484 0 0 1-.357-.144.484.484 0 0 1-.143-.356V18H7.769v1.5c0 .142-.048.26-.144.356A.484.484 0 0 1 7.27 20h-.23ZM6 11h12V6.538H6V11Zm2.505 4.615c.31 0 .574-.108.788-.326.215-.218.322-.482.322-.793 0-.312-.108-.575-.326-.79a1.088 1.088 0 0 0-.794-.321c-.31 0-.574.108-.788.326a1.087 1.087 0 0 0-.322.793c0 .312.109.575.326.79.218.214.482.321.794.321Zm7 0c.31 0 .573-.108.788-.326.215-.218.322-.482.322-.793 0-.312-.108-.575-.326-.79a1.088 1.088 0 0 0-.794-.321c-.31 0-.573.108-.788.326a1.088 1.088 0 0 0-.322.793c0 .312.108.575.326.79.218.214.482.321.793.321ZM6.104 5.538h11.815c-.173-.514-.707-.899-1.603-1.154-.895-.256-2.33-.384-4.304-.384-1.963 0-3.392.13-4.288.39-.895.259-1.436.642-1.62 1.148ZM8 17h8c.55 0 1.02-.196 1.413-.587.391-.392.587-.863.587-1.413v-3H6v3c0 .55.196 1.02.588 1.413.391.391.862.587 1.412.587Z" fill="#fff"/></g></g></svg>