<svg width="24" height="24" fill="none" xmlns="http://www.w3.org/2000/svg"><g id="id-card-svgrepo-com"><path id="Vector" d="M21 3.938H3A2.065 2.065 0 0 0 .937 6v12A2.065 2.065 0 0 0 3 20.063h18A2.065 2.065 0 0 0 23.063 18V6A2.065 2.065 0 0 0 21 3.937ZM3 5.062h18c.517.001.937.42.938.938v.938H2.063V6c0-.518.42-.937.937-.938Zm18 13.875H3A.939.939 0 0 1 2.062 18V8.062h19.875V18c0 .517-.42.937-.937.938ZM7.234 13.221a1.976 1.976 0 1 0 0-3.953 1.976 1.976 0 0 0 0 3.953Zm0-2.828a.851.851 0 1 1 0 1.703.851.851 0 0 1 0-1.703Zm0 3.715a3.41 3.41 0 0 0-3.308 2.64l-.004.023a.563.563 0 0 0 1.098.244v-.003a2.267 2.267 0 0 1 4.424-.015l.003.015a.563.563 0 0 0 1.098-.245v.004a3.415 3.415 0 0 0-3.31-2.664l-.001.001ZM19.5 9.938h-6a.563.563 0 0 0 0 1.124h6a.563.563 0 0 0 0-1.124Zm0 3h-6a.563.563 0 0 0 0 1.124h6a.563.563 0 0 0 0-1.124Zm0 3h-6a.563.563 0 0 0 0 1.124h6a.563.563 0 0 0 0-1.125Z" fill="#fff"/></g></svg>