<svg width="24" height="24" fill="none" xmlns="http://www.w3.org/2000/svg"><g id="face_4"><mask id="mask0_268_5687" style="mask-type:alpha" maskUnits="userSpaceOnUse" x="0" y="0" width="24" height="24"><path id="Bounding box" fill="#D9D9D9" d="M0 0h24v24H0z"/></mask><g mask="url('#mask0_268_5687')"><path id="face_4_2" d="M9 16.25c-.35 0-.646-.12-.887-.363A1.207 1.207 0 0 1 7.75 15c0-.35.121-.646.363-.887.241-.242.537-.363.887-.363s.646.12.888.363c.241.241.362.537.362.887s-.12.646-.362.887A1.207 1.207 0 0 1 9 16.25Zm6 0c-.35 0-.646-.12-.887-.363A1.207 1.207 0 0 1 13.75 15c0-.35.121-.646.363-.887.241-.242.537-.363.887-.363s.646.12.888.363c.241.241.362.537.362.887s-.12.646-.362.887a1.207 1.207 0 0 1-.888.363ZM12 22c2.234 0 4.125-.775 5.675-2.325C19.225 18.125 20 16.233 20 14c0-.4-.025-.787-.075-1.162a4.838 4.838 0 0 0-.275-1.088c-.35.083-.7.146-1.05.188a9.3 9.3 0 0 1-1.1.062 9.787 9.787 0 0 1-4.3-.975A9.983 9.983 0 0 1 9.75 8.3a9.86 9.86 0 0 1-2.287 3.387A9.768 9.768 0 0 1 4 13.85V14c0 2.233.775 4.125 2.325 5.675C7.875 21.225 9.767 22 12 22ZM9.708 6.317c.815 1.628 1.967 2.816 3.456 3.563 1.488.747 2.934 1.12 4.336 1.12.31 0 .616-.016.916-.047.3-.031.598-.083.896-.155-.636-1.487-1.621-2.659-2.956-3.514A7.914 7.914 0 0 0 12 6c-.438 0-.84.025-1.204.076-.364.05-.726.131-1.088.241Zm-5.571 6.389c1.03-.458 2.072-1.208 3.129-2.25 1.056-1.043 1.672-2.353 1.848-3.931a7.676 7.676 0 0 0-3.321 2.404 7.922 7.922 0 0 0-1.656 3.777Zm-.712-1.246a8.577 8.577 0 0 1 1.917-3.523 8.406 8.406 0 0 1 3.31-2.262 4.177 4.177 0 0 0-1.34-1.1 3.733 3.733 0 0 0-1.767-.421c-1.11 0-2.05.384-2.817 1.152-.767.769-1.15 1.71-1.15 2.823 0 .7.168 1.34.507 1.92a4.15 4.15 0 0 0 1.34 1.41ZM12.004 23a8.769 8.769 0 0 1-3.51-.709 9.094 9.094 0 0 1-2.86-1.924A9.089 9.089 0 0 1 3.71 17.51 8.76 8.76 0 0 1 3 14c0-.263.011-.523.033-.782.022-.258.06-.508.117-.749a4.845 4.845 0 0 1-1.872-1.785 4.829 4.829 0 0 1-.7-2.555c0-1.383.482-2.558 1.45-3.525.966-.967 2.14-1.45 3.524-1.45.845 0 1.622.196 2.332.59.71.392 1.29.919 1.74 1.58a8.504 8.504 0 0 1 1.17-.243C11.193 5.027 11.594 5 12 5c1.245 0 2.415.236 3.51.708a9.09 9.09 0 0 1 2.858 1.924 9.086 9.086 0 0 1 1.924 2.856A8.758 8.758 0 0 1 21 13.997a8.77 8.77 0 0 1-.708 3.51 9.094 9.094 0 0 1-1.923 2.859 9.083 9.083 0 0 1-2.857 1.925 8.753 8.753 0 0 1-3.508.709Z" fill="#fff"/></g></g></svg>