<svg width="24" height="24" fill="none" xmlns="http://www.w3.org/2000/svg"><g id="ticket-blank-svgrepo-com"><path id="Vector" d="M22.5 10.313c.31 0 .563-.253.563-.563V6a.563.563 0 0 0-.563-.563h-21A.563.563 0 0 0 .937 6v3.75c0 .31.252.563.563.563a1.687 1.687 0 1 1 0 3.374.563.563 0 0 0-.563.563V18c0 .31.252.563.563.563h21c.31 0 .563-.252.563-.563v-3.75a.563.563 0 0 0-.563-.563 1.687 1.687 0 1 1 0-3.374Zm-.563 4.442v2.682H2.063v-2.682A2.818 2.818 0 0 0 4.313 12a2.814 2.814 0 0 0-2.23-2.752l-.019-.003V6.563h19.875v2.682A2.818 2.818 0 0 0 19.688 12c0 1.354.957 2.485 2.232 2.752l.017.003Z" fill="#fff"/></g></svg>